<svg xmlns="http://www.w3.org/2000/svg" xmlns:xlink="http://www.w3.org/1999/xlink" width="500" zoomAndPan="magnify" viewBox="0 0 375 149.999998" height="200" preserveAspectRatio="xMidYMid meet" version="1.0"><defs><g/><clipPath id="48befd6753"><path d="M 256.058594 16.574219 L 365.558594 16.574219 L 365.558594 126.074219 L 256.058594 126.074219 Z M 256.058594 16.574219 " clip-rule="nonzero"/></clipPath><clipPath id="f8ae87e389"><path d="M 310.875 16.574219 C 280.601562 16.574219 256.058594 41.117188 256.058594 71.390625 C 256.058594 101.660156 280.601562 126.203125 310.875 126.203125 C 341.148438 126.203125 365.6875 101.660156 365.6875 71.390625 C 365.6875 41.117188 341.148438 16.574219 310.875 16.574219 Z M 310.875 16.574219 " clip-rule="nonzero"/></clipPath><clipPath id="0c5a19068b"><path d="M 256.058594 79.394531 L 365.558594 79.394531 L 365.558594 125.894531 L 256.058594 125.894531 Z M 256.058594 79.394531 " clip-rule="nonzero"/></clipPath><clipPath id="5afc8049a6"><path d="M 279.03125 14 L 363 14 L 363 73.839844 L 279.03125 73.839844 Z M 279.03125 14 " clip-rule="nonzero"/></clipPath></defs><g clip-path="url(#48befd6753)"><g clip-path="url(#f8ae87e389)"><path stroke-linecap="butt" transform="matrix(0.75, 0, 0, 0.75, 256.059687, 16.574393)" fill="none" stroke-linejoin="miter" d="M 73.087089 -0.000232484 C 32.722503 -0.000232484 -0.00145712 32.723728 -0.00145712 73.088313 C -0.00145712 113.447691 32.722503 146.171651 73.087089 146.171651 C 113.451675 146.171651 146.170426 113.447691 146.170426 73.088313 C 146.170426 32.723728 113.451675 -0.000232484 73.087089 -0.000232484 Z M 73.087089 -0.000232484 " stroke="#ffffff" stroke-width="8" stroke-opacity="1" stroke-miterlimit="4"/></g></g><g clip-path="url(#0c5a19068b)"><path fill="#ffffff" d="M 310.871094 16.574219 C 280.648438 16.574219 256.058594 41.164062 256.058594 71.386719 C 256.054688 74.363281 256.296875 77.320312 256.785156 80.257812 C 256.929688 81.230469 257.117188 82.203125 257.335938 83.160156 C 257.496094 83.929688 257.683594 84.695312 257.886719 85.46875 C 258.015625 85.945312 258.148438 86.441406 258.292969 86.917969 C 258.773438 88.515625 259.308594 90.085938 259.933594 91.609375 C 260.226562 92.363281 260.542969 93.101562 260.878906 93.84375 C 262.25 96.878906 263.886719 99.769531 265.78125 102.507812 C 265.839844 102.609375 265.914062 102.710938 265.984375 102.8125 C 266.320312 103.292969 266.667969 103.773438 267.03125 104.238281 C 267.105469 104.339844 267.175781 104.425781 267.265625 104.527344 C 269.417969 107.378906 271.839844 109.988281 274.523438 112.351562 C 274.742188 112.554688 274.960938 112.742188 275.175781 112.929688 C 275.507812 113.234375 275.84375 113.527344 276.191406 113.800781 C 276.453125 114.003906 276.703125 114.207031 276.960938 114.398438 C 282.402344 118.71875 288.449219 121.886719 295.105469 123.890625 C 295.597656 124.035156 296.105469 124.183594 296.613281 124.3125 C 296.636719 124.324219 296.660156 124.328125 296.6875 124.324219 C 296.992188 124.414062 297.296875 124.5 297.617188 124.574219 C 297.921875 124.660156 298.242188 124.730469 298.546875 124.792969 C 298.71875 124.835938 298.894531 124.878906 299.070312 124.90625 C 299.277344 124.964844 299.492188 125.007812 299.707031 125.039062 C 302.324219 125.59375 304.964844 125.949219 307.632812 126.101562 C 308.054688 126.128906 308.488281 126.160156 308.910156 126.160156 C 309.085938 126.171875 309.246094 126.171875 309.417969 126.171875 C 309.710938 126.1875 310.015625 126.1875 310.304688 126.1875 C 310.429688 126.199219 310.554688 126.203125 310.683594 126.203125 L 310.871094 126.203125 C 311.058594 126.203125 311.234375 126.203125 311.421875 126.1875 C 311.769531 126.1875 312.117188 126.1875 312.453125 126.171875 C 312.574219 126.175781 312.695312 126.171875 312.816406 126.160156 C 315.601562 126.070312 318.359375 125.765625 321.09375 125.246094 C 321.410156 125.1875 321.71875 125.128906 322.023438 125.054688 C 322.128906 125.042969 322.234375 125.023438 322.339844 124.996094 C 322.453125 124.976562 322.566406 124.949219 322.675781 124.910156 C 323.472656 124.75 324.273438 124.542969 325.054688 124.328125 C 325.070312 124.328125 325.097656 124.316406 325.113281 124.316406 C 332.355469 122.363281 338.917969 119.058594 344.796875 114.402344 C 344.914062 114.3125 345.03125 114.210938 345.144531 114.125 C 345.480469 113.863281 345.8125 113.585938 346.132812 113.296875 C 346.511719 112.992188 346.871094 112.671875 347.234375 112.355469 C 349.816406 110.082031 352.152344 107.578125 354.246094 104.851562 C 354.332031 104.75 354.40625 104.648438 354.480469 104.546875 C 354.773438 104.179688 355.046875 103.804688 355.308594 103.425781 C 355.527344 103.121094 355.746094 102.816406 355.945312 102.511719 C 357.707031 99.988281 359.242188 97.332031 360.546875 94.546875 C 360.664062 94.3125 360.765625 94.082031 360.867188 93.847656 C 361.199219 93.109375 361.519531 92.367188 361.808594 91.613281 C 362.433594 90.089844 362.972656 88.519531 363.449219 86.925781 C 363.597656 86.445312 363.726562 85.953125 363.855469 85.472656 C 364.058594 84.703125 364.25 83.9375 364.40625 83.164062 C 364.628906 82.207031 364.8125 81.234375 364.960938 80.261719 C 365.445312 77.324219 365.6875 74.367188 365.6875 71.390625 C 365.683594 41.164062 341.09375 16.574219 310.871094 16.574219 Z M 281.546875 114.179688 C 283.976562 114.351562 286.273438 114.980469 288.449219 116.078125 C 290.621094 117.171875 292.496094 118.644531 294.074219 120.496094 C 289.605469 118.976562 285.429688 116.871094 281.546875 114.179688 Z M 308.34375 123.222656 C 305.417969 123.097656 302.523438 122.714844 299.664062 122.082031 L 299.664062 122.066406 C 299.582031 122.054688 299.511719 122.046875 299.4375 122.03125 C 299.40625 122.023438 299.375 122.015625 299.34375 122.007812 L 299.332031 122.007812 C 299.214844 121.980469 299.109375 121.949219 299.011719 121.921875 C 298.835938 121.878906 298.664062 121.847656 298.5 121.804688 C 298.351562 121.777344 298.207031 121.730469 298.0625 121.703125 C 297.914062 121.46875 297.769531 121.238281 297.609375 121.019531 C 297.566406 120.960938 297.523438 120.890625 297.480469 120.832031 L 297.480469 120.816406 C 297.1875 120.398438 296.898438 119.992188 296.582031 119.585938 C 292.589844 114.503906 286.59375 111.585938 280.148438 111.585938 C 279.757812 111.585938 279.378906 111.601562 278.988281 111.613281 C 278.726562 111.628906 278.449219 111.644531 278.1875 111.671875 C 275.164062 109.230469 272.453125 106.476562 270.058594 103.414062 C 271.339844 102.964844 272.644531 102.605469 273.976562 102.332031 C 275.304688 102.058594 276.648438 101.871094 278 101.777344 C 279.355469 101.679688 280.707031 101.675781 282.0625 101.757812 C 283.417969 101.84375 284.761719 102.015625 286.09375 102.277344 C 287.425781 102.539062 288.734375 102.890625 290.019531 103.324219 C 291.304688 103.761719 292.554688 104.28125 293.773438 104.882812 C 294.988281 105.484375 296.160156 106.164062 297.285156 106.921875 C 298.410156 107.679688 299.484375 108.507812 300.5 109.40625 C 300.90625 109.753906 301.28125 110.117188 301.644531 110.46875 L 302.285156 111.105469 C 302.675781 111.496094 303.039062 111.917969 303.386719 112.324219 C 305.679688 114.945312 307.46875 117.871094 308.757812 121.105469 C 309.058594 121.816406 309.320312 122.542969 309.542969 123.285156 C 309.144531 123.265625 308.738281 123.25 308.34375 123.222656 Z M 312.207031 123.265625 L 312.117188 123.265625 C 312.105469 123.238281 312.105469 123.210938 312.089844 123.179688 C 311.886719 122.46875 311.652344 121.730469 311.320312 120.839844 C 311.175781 120.433594 311.015625 120.058594 310.871094 119.695312 L 310.871094 119.679688 C 310.710938 119.289062 310.550781 118.925781 310.378906 118.5625 C 308.921875 115.429688 307.027344 112.589844 304.699219 110.042969 C 304.394531 109.707031 304.078125 109.375 303.757812 109.054688 C 303.480469 108.792969 303.222656 108.53125 302.945312 108.269531 C 302.609375 107.953125 302.261719 107.648438 301.914062 107.355469 C 300.417969 106.054688 298.816406 104.898438 297.113281 103.886719 C 295.40625 102.871094 293.625 102.019531 291.769531 101.324219 C 289.910156 100.632812 288.007812 100.109375 286.054688 99.753906 C 284.105469 99.402344 282.136719 99.226562 280.15625 99.226562 C 276.183594 99.21875 272.335938 99.910156 268.613281 101.304688 C 268.585938 101.316406 268.542969 101.332031 268.511719 101.347656 C 266.566406 98.597656 264.898438 95.691406 263.507812 92.625 C 268.832031 90.394531 274.382812 89.28125 280.15625 89.285156 C 290.855469 89.285156 300.667969 93.207031 308.230469 99.695312 C 308.535156 99.941406 308.828125 100.207031 309.132812 100.464844 L 310.046875 101.335938 C 310.320312 101.597656 310.597656 101.871094 310.875 102.132812 C 313.035156 104.320312 314.9375 106.714844 316.574219 109.320312 C 316.734375 109.566406 316.878906 109.796875 317.039062 110.042969 C 317.199219 110.304688 317.359375 110.582031 317.519531 110.859375 C 317.792969 111.335938 318.070312 111.816406 318.332031 112.308594 C 319.984375 115.40625 321.234375 118.65625 322.074219 122.0625 C 318.824219 122.792969 315.535156 123.191406 312.207031 123.265625 Z M 327.679688 120.480469 C 329.257812 118.632812 331.132812 117.164062 333.304688 116.070312 C 335.472656 114.980469 337.769531 114.347656 340.195312 114.179688 C 336.320312 116.871094 332.148438 118.972656 327.679688 120.480469 Z M 351.53125 103.597656 C 349.167969 106.574219 346.511719 109.265625 343.5625 111.667969 C 343.289062 111.636719 343.011719 111.625 342.738281 111.609375 C 342.359375 111.59375 341.96875 111.578125 341.589844 111.578125 C 335.144531 111.578125 329.148438 114.496094 325.144531 119.578125 C 324.839844 119.984375 324.535156 120.375 324.257812 120.796875 C 324.199219 120.550781 324.128906 120.285156 324.054688 120.042969 C 323.101562 116.695312 321.78125 113.503906 320.09375 110.460938 C 320.441406 110.097656 320.816406 109.75 321.222656 109.402344 C 322.242188 108.503906 323.3125 107.675781 324.441406 106.917969 C 325.566406 106.160156 326.738281 105.480469 327.957031 104.878906 C 329.171875 104.273438 330.425781 103.757812 331.710938 103.320312 C 332.996094 102.882812 334.304688 102.535156 335.636719 102.273438 C 336.972656 102.011719 338.316406 101.839844 339.671875 101.753906 C 341.023438 101.671875 342.378906 101.675781 343.734375 101.773438 C 345.089844 101.867188 346.429688 102.054688 347.761719 102.328125 C 349.089844 102.601562 350.398438 102.960938 351.679688 103.410156 C 351.632812 103.46875 351.574219 103.539062 351.53125 103.597656 Z M 357.949219 93.230469 C 356.628906 96.082031 355.050781 98.78125 353.214844 101.332031 C 353.1875 101.316406 353.15625 101.316406 353.128906 101.300781 C 349.40625 99.910156 345.558594 99.21875 341.585938 99.226562 C 339.605469 99.226562 337.636719 99.402344 335.683594 99.753906 C 333.730469 100.105469 331.824219 100.628906 329.964844 101.324219 C 328.109375 102.019531 326.324219 102.871094 324.621094 103.882812 C 322.914062 104.898438 321.3125 106.054688 319.8125 107.355469 C 319.464844 107.648438 319.132812 107.949219 318.796875 108.269531 C 318.667969 108.050781 318.523438 107.847656 318.390625 107.632812 C 316.710938 105.042969 314.785156 102.652344 312.613281 100.460938 C 312.917969 100.199219 313.210938 99.9375 313.515625 99.691406 C 321.078125 93.203125 330.890625 89.28125 341.585938 89.28125 C 347.355469 89.277344 352.902344 90.390625 358.222656 92.621094 C 358.132812 92.828125 358.03125 93.03125 357.945312 93.234375 Z M 361.429688 83.15625 C 361.257812 83.941406 361.054688 84.710938 360.835938 85.464844 C 360.707031 85.960938 360.558594 86.4375 360.398438 86.917969 C 360.039062 88.09375 359.625 89.25 359.148438 90.386719 C 357.199219 89.574219 355.203125 88.898438 353.15625 88.363281 C 351.113281 87.828125 349.042969 87.4375 346.945312 87.1875 C 344.847656 86.941406 342.742188 86.839844 340.628906 86.882812 C 338.515625 86.929688 336.417969 87.121094 334.332031 87.457031 C 332.246094 87.792969 330.191406 88.273438 328.171875 88.894531 C 326.152344 89.519531 324.1875 90.277344 322.273438 91.171875 C 320.359375 92.070312 318.515625 93.09375 316.746094 94.246094 C 314.972656 95.394531 313.292969 96.664062 311.695312 98.050781 L 310.871094 98.792969 L 310.042969 98.054688 C 308.449219 96.667969 306.761719 95.398438 304.992188 94.246094 C 303.21875 93.09375 301.375 92.070312 299.460938 91.175781 C 297.546875 90.28125 295.582031 89.519531 293.5625 88.898438 C 291.539062 88.277344 289.488281 87.796875 287.402344 87.460938 C 285.316406 87.121094 283.214844 86.929688 281.101562 86.886719 C 278.988281 86.839844 276.882812 86.941406 274.785156 87.191406 C 272.683594 87.4375 270.613281 87.828125 268.570312 88.367188 C 266.523438 88.902344 264.527344 89.574219 262.574219 90.390625 C 262.125 89.257812 261.707031 88.09375 261.34375 86.917969 C 261.183594 86.441406 261.039062 85.960938 260.902344 85.46875 C 260.683594 84.714844 260.480469 83.945312 260.308594 83.160156 C 260.152344 82.472656 260.007812 81.777344 259.871094 81.082031 L 361.867188 81.082031 C 361.734375 81.777344 361.589844 82.472656 361.429688 83.160156 Z M 362.195312 79.210938 L 259.546875 79.210938 C 259.160156 76.617188 258.964844 74.011719 258.964844 71.390625 C 258.964844 42.765625 282.246094 19.480469 310.871094 19.480469 C 339.496094 19.480469 362.78125 42.765625 362.78125 71.390625 C 362.78125 74.011719 362.585938 76.617188 362.191406 79.210938 Z M 317.660156 32.179688 C 317.757812 31.71875 317.808594 31.253906 317.8125 30.785156 C 317.808594 30.332031 317.757812 29.886719 317.667969 29.441406 C 317.574219 29 317.441406 28.570312 317.265625 28.152344 C 317.085938 27.738281 316.871094 27.339844 316.621094 26.96875 C 316.367188 26.59375 316.078125 26.246094 315.757812 25.929688 C 315.433594 25.609375 315.085938 25.328125 314.710938 25.078125 C 314.332031 24.828125 313.933594 24.617188 313.515625 24.445312 C 313.097656 24.273438 312.667969 24.140625 312.222656 24.054688 C 311.78125 23.96875 311.332031 23.921875 310.878906 23.921875 C 310.425781 23.921875 309.980469 23.96875 309.535156 24.054688 C 309.09375 24.140625 308.660156 24.273438 308.242188 24.445312 C 307.824219 24.617188 307.425781 24.828125 307.050781 25.078125 C 306.671875 25.328125 306.324219 25.609375 306.003906 25.929688 C 305.679688 26.246094 305.394531 26.59375 305.140625 26.96875 C 304.886719 27.339844 304.671875 27.738281 304.496094 28.152344 C 304.320312 28.570312 304.183594 29 304.09375 29.441406 C 304 29.886719 303.953125 30.332031 303.949219 30.785156 C 303.949219 31.253906 303.996094 31.71875 304.09375 32.179688 C 284.125 35.445312 269.003906 53.015625 268.820312 73.328125 L 268.820312 74.566406 L 352.933594 74.566406 L 352.933594 73.324219 C 352.777344 53.019531 337.65625 35.445312 317.660156 32.179688 Z M 310.878906 26.488281 C 313.269531 26.488281 315.207031 28.414062 315.207031 30.785156 C 315.210938 31.144531 315.164062 31.496094 315.066406 31.839844 C 312.285156 31.546875 309.5 31.546875 306.71875 31.839844 C 306.625 31.496094 306.578125 31.144531 306.578125 30.785156 C 306.578125 30.503906 306.605469 30.222656 306.660156 29.945312 C 306.71875 29.667969 306.800781 29.402344 306.90625 29.140625 C 307.015625 28.878906 307.148438 28.632812 307.304688 28.398438 C 307.460938 28.164062 307.640625 27.945312 307.839844 27.746094 C 308.039062 27.546875 308.257812 27.371094 308.492188 27.210938 C 308.726562 27.054688 308.972656 26.921875 309.234375 26.816406 C 309.496094 26.707031 309.765625 26.625 310.042969 26.570312 C 310.316406 26.515625 310.597656 26.488281 310.878906 26.488281 Z M 271.339844 72.085938 C 272.085938 53.207031 286.636719 37.097656 305.441406 34.480469 C 305.953125 34.386719 306.457031 34.335938 307.09375 34.269531 C 308.351562 34.148438 309.613281 34.085938 310.878906 34.089844 C 312.164062 34.082031 313.445312 34.152344 314.71875 34.300781 C 315.261719 34.324219 315.800781 34.386719 316.335938 34.488281 C 335.136719 37.097656 349.699219 53.210938 350.445312 72.085938 Z M 274.175781 67.292969 L 275.910156 67.644531 C 275.957031 67.417969 280.761719 44.90625 300.15625 40.640625 L 299.773438 38.910156 C 279.269531 43.421875 274.222656 67.054688 274.179688 67.296875 Z M 274.175781 67.292969 " fill-opacity="1" fill-rule="nonzero"/></g><path stroke-linecap="butt" transform="matrix(0.75, -0.000000000000000372, 0.000000000000000372, 0.75, 258.289294, 77.980003)" fill="none" stroke-linejoin="miter" d="M -0.000308211 2.000621 L 139.385117 2.000621 " stroke="#ffffff" stroke-width="4" stroke-opacity="1" stroke-miterlimit="4"/><path fill="#ffffff" d="M 313.128906 33.65625 C 309.972656 33 306.082031 33.246094 303.398438 35.21875 C 301.226562 36.816406 300.617188 39.546875 302.574219 41.597656 C 304.796875 43.925781 308.71875 44.425781 311.75 44.070312 C 314.59375 43.738281 318.433594 42.402344 318.871094 39.164062 C 318.902344 39.042969 318.914062 38.90625 318.910156 38.757812 C 318.914062 38.605469 318.902344 38.46875 318.867188 38.339844 C 318.484375 35.628906 315.597656 34.171875 313.128906 33.65625 Z M 314.3125 40.644531 C 313.011719 41.242188 311.539062 41.453125 310.121094 41.457031 C 308.65625 41.457031 307.128906 41.226562 305.800781 40.582031 C 305.125 40.253906 304.046875 39.636719 304.046875 38.757812 C 304.046875 37.921875 305.03125 37.328125 305.671875 36.996094 C 307.019531 36.292969 308.617188 36.058594 310.121094 36.058594 C 311.535156 36.058594 313.011719 36.269531 314.308594 36.867188 C 315.054688 37.210938 316.152344 37.824219 316.191406 38.757812 C 316.15625 39.6875 315.054688 40.304688 314.3125 40.644531 Z M 314.3125 40.644531 " fill-opacity="1" fill-rule="nonzero"/><g clip-path="url(#5afc8049a6)"><path fill="#ffffff" d="M 362.59375 44.363281 C 362.089844 42.75 361.589844 41.136719 361.089844 39.523438 C 360.878906 38.84375 360.136719 38.34375 359.417969 38.574219 C 356.875 39.382812 354.328125 40.191406 351.785156 41 C 345.707031 42.929688 339.628906 44.859375 333.554688 46.792969 C 332.394531 47.160156 331.234375 47.527344 330.078125 47.894531 C 330.078125 44.917969 330.078125 41.9375 330.078125 38.960938 C 330.078125 38.886719 330.074219 38.820312 330.066406 38.753906 C 329.996094 37.179688 329.492188 35.804688 328.683594 34.605469 C 335.382812 30.648438 342.085938 26.691406 348.789062 22.738281 C 349.808594 22.136719 350.828125 21.53125 351.851562 20.929688 C 352.480469 20.558594 352.714844 19.707031 352.339844 19.070312 C 351.476562 17.621094 350.617188 16.167969 349.753906 14.710938 C 349.382812 14.085938 348.527344 13.84375 347.898438 14.222656 C 340.214844 18.855469 332.535156 23.488281 324.851562 28.117188 C 323.957031 28.65625 323.0625 29.195312 322.167969 29.734375 C 320.410156 28.988281 318.589844 28.460938 316.972656 28.132812 C 309.792969 26.671875 300.949219 27.21875 294.769531 31.542969 C 292.519531 33.117188 290.570312 35.316406 290.226562 38.136719 C 290.203125 38.335938 290.191406 38.539062 290.183594 38.734375 C 290.171875 38.804688 290.167969 38.878906 290.167969 38.957031 C 290.167969 42.289062 290.167969 45.621094 290.167969 48.957031 C 286.746094 51.007812 283.324219 53.0625 279.902344 55.117188 C 279.277344 55.492188 279.035156 56.335938 279.414062 56.976562 C 280.136719 58.191406 280.859375 59.40625 281.578125 60.625 C 281.953125 61.253906 282.796875 61.484375 283.4375 61.109375 C 286.210938 59.484375 288.988281 57.855469 291.765625 56.230469 C 292.355469 56.140625 292.878906 55.707031 292.878906 54.941406 C 292.878906 51.566406 292.878906 48.195312 292.878906 44.824219 C 292.953125 44.898438 293.023438 44.96875 293.101562 45.039062 C 298.421875 50.007812 307.078125 51.046875 314 50.242188 C 318.117188 49.765625 323.96875 48.25 327.359375 44.953125 C 327.359375 46.222656 327.359375 47.488281 327.359375 48.757812 C 322.039062 50.445312 316.714844 52.136719 311.394531 53.828125 C 305.035156 55.847656 298.671875 57.867188 292.3125 59.890625 C 289.207031 60.875 286.050781 61.773438 282.972656 62.855469 C 282.929688 62.871094 282.882812 62.886719 282.839844 62.898438 C 282.15625 63.117188 281.667969 63.84375 281.890625 64.570312 C 282.3125 65.917969 282.730469 67.269531 283.148438 68.617188 C 283.222656 68.847656 283.335938 69.03125 283.472656 69.175781 C 283.765625 69.542969 284.230469 69.746094 284.820312 69.566406 C 287.300781 68.804688 289.78125 68.046875 292.261719 67.285156 C 296.039062 71.761719 302.84375 73.273438 308.394531 73.550781 C 314.589844 73.863281 321.65625 72.710938 326.574219 68.664062 C 328.574219 67.019531 330.027344 64.726562 330.074219 62.085938 C 330.105469 60.339844 327.390625 60.339844 327.359375 62.085938 C 327.28125 66.4375 321.867188 68.777344 318.367188 69.777344 C 312.621094 71.417969 306.136719 71.308594 300.480469 69.339844 C 298.574219 68.671875 296.703125 67.734375 295.191406 66.390625 C 300.386719 64.796875 305.578125 63.207031 310.769531 61.617188 C 318.179688 59.34375 325.585938 57.078125 332.996094 54.804688 C 339.378906 52.851562 345.757812 50.898438 352.140625 48.941406 C 355.253906 47.988281 358.425781 47.132812 361.507812 46.070312 C 361.554688 46.054688 361.597656 46.042969 361.644531 46.03125 C 362.328125 45.824219 362.816406 45.082031 362.59375 44.363281 Z M 290.164062 54.023438 C 287.851562 55.378906 285.542969 56.730469 283.230469 58.085938 C 282.96875 57.644531 282.707031 57.203125 282.441406 56.757812 C 285.015625 55.214844 287.589844 53.667969 290.164062 52.121094 C 290.164062 52.753906 290.164062 53.390625 290.164062 54.023438 Z M 345.988281 18.542969 C 346.695312 18.117188 347.402344 17.6875 348.109375 17.261719 C 348.507812 17.933594 348.90625 18.605469 349.304688 19.277344 C 342.53125 23.273438 335.757812 27.273438 328.984375 31.269531 C 328.265625 31.695312 327.550781 32.117188 326.832031 32.539062 C 326.269531 32.050781 325.652344 31.601562 325 31.191406 C 331.996094 26.976562 338.992188 22.761719 345.988281 18.542969 Z M 324.210938 43.949219 C 321.816406 45.667969 318.949219 46.632812 316.082031 47.195312 C 309.824219 48.433594 302.335938 47.917969 296.8125 44.472656 C 295.066406 43.382812 293.261719 41.761719 292.925781 39.621094 C 292.894531 39.4375 292.882812 39.257812 292.878906 39.078125 C 292.878906 39.035156 292.878906 38.996094 292.878906 38.957031 C 292.878906 38.925781 292.875 38.902344 292.875 38.875 C 292.917969 37.15625 294.023438 35.664062 295.296875 34.546875 C 297.433594 32.671875 300.273438 31.625 302.996094 30.96875 C 306.410156 30.148438 309.976562 29.980469 313.464844 30.328125 C 316.257812 30.601562 319.109375 31.261719 321.667969 32.480469 C 321.710938 32.503906 321.757812 32.527344 321.804688 32.546875 C 322.363281 32.816406 322.90625 33.113281 323.433594 33.441406 C 325.382812 34.65625 327.320312 36.507812 327.367188 38.957031 C 327.324219 41.066406 325.851562 42.773438 324.210938 43.949219 Z M 353.261719 45.761719 C 347.167969 47.632812 341.070312 49.496094 334.972656 51.367188 C 327.566406 53.636719 320.15625 55.90625 312.746094 58.175781 C 306.367188 60.132812 299.984375 62.085938 293.605469 64.039062 C 290.863281 64.878906 288.078125 65.644531 285.347656 66.539062 C 285.199219 66.058594 285.046875 65.574219 284.898438 65.09375 C 287 64.425781 289.097656 63.757812 291.199219 63.09375 C 297.277344 61.160156 303.355469 59.230469 309.429688 57.300781 C 316.816406 54.953125 324.199219 52.605469 331.585938 50.261719 C 337.945312 48.242188 344.304688 46.222656 350.664062 44.199219 C 352.78125 43.527344 354.898438 42.855469 357.015625 42.183594 C 357.613281 41.996094 358.273438 41.84375 358.90625 41.652344 C 359.132812 42.378906 359.359375 43.101562 359.582031 43.828125 C 357.476562 44.472656 355.371094 45.117188 353.261719 45.761719 Z M 353.261719 45.761719 " fill-opacity="1" fill-rule="nonzero"/></g><g fill="#ffffff" fill-opacity="1"><g transform="translate(6.720327, 81.347781)"><g><path d="M 16.109375 -14.828125 L 10.484375 -14.828125 L 10.484375 0 L 5.75 0 L 5.75 -14.828125 L 0.1875 -14.828125 L 0.1875 -18.671875 L 16.109375 -18.671875 Z M 16.109375 -14.828125 "/></g></g></g><g fill="#ffffff" fill-opacity="1"><g transform="translate(22.986692, 81.347781)"><g><path d="M 10.703125 -18.796875 C 13.597656 -18.796875 16.003906 -17.894531 17.921875 -16.09375 C 19.835938 -14.289062 20.796875 -12.039062 20.796875 -9.34375 C 20.796875 -6.625 19.832031 -4.347656 17.90625 -2.515625 C 15.976562 -0.691406 13.578125 0.21875 10.703125 0.21875 C 7.828125 0.21875 5.429688 -0.691406 3.515625 -2.515625 C 1.597656 -4.335938 0.640625 -6.613281 0.640625 -9.34375 C 0.640625 -12.0625 1.597656 -14.316406 3.515625 -16.109375 C 5.429688 -17.898438 7.828125 -18.796875 10.703125 -18.796875 Z M 10.75 -14.828125 C 9.300781 -14.828125 8.0625 -14.296875 7.03125 -13.234375 C 6 -12.179688 5.484375 -10.875 5.484375 -9.3125 C 5.484375 -7.75 6 -6.429688 7.03125 -5.359375 C 8.070312 -4.285156 9.3125 -3.75 10.75 -3.75 C 12.1875 -3.75 13.40625 -4.285156 14.40625 -5.359375 C 15.414062 -6.429688 15.921875 -7.75 15.921875 -9.3125 C 15.921875 -10.875 15.414062 -12.179688 14.40625 -13.234375 C 13.40625 -14.296875 12.1875 -14.828125 10.75 -14.828125 Z M 10.75 -14.828125 "/></g></g></g><g fill="#ffffff" fill-opacity="1"><g transform="translate(44.417822, 81.347781)"><g><path d="M 14 0 L 9.078125 -7.328125 L 6.609375 -4.578125 L 6.609375 0 L 1.859375 0 L 1.859375 -18.640625 L 6.609375 -18.640625 L 6.609375 -10.5625 L 13.734375 -18.640625 L 19.21875 -18.640625 L 12.296875 -10.921875 L 19.671875 0 Z M 14 0 "/></g></g></g><g fill="#ffffff" fill-opacity="1"><g transform="translate(64.304849, 81.347781)"><g><path d="M 14.25 -3.4375 L 6.09375 -3.4375 L 4.734375 0 L -0.140625 0 L 7.90625 -18.640625 L 12.78125 -18.640625 L 20.640625 0 L 15.578125 0 Z M 12.859375 -7.03125 L 10.203125 -13.921875 L 7.484375 -7.03125 Z M 12.859375 -7.03125 "/></g></g></g><g fill="#ffffff" fill-opacity="1"><g transform="translate(84.804199, 81.347781)"><g><path d="M 6.609375 0 L 1.859375 0 L 1.859375 -18.640625 L 6.609375 -18.640625 Z M 6.609375 0 "/></g></g></g><g fill="#ffffff" fill-opacity="1"><g transform="translate(93.270157, 81.347781)"><g/></g></g><g fill="#ffffff" fill-opacity="1"><g transform="translate(99.446587, 81.347781)"><g><path d="M 9.03125 -18.84375 C 11.8125 -18.84375 14.257812 -18.15625 16.375 -16.78125 L 14.59375 -13.078125 C 13.613281 -13.640625 12.5625 -14.101562 11.4375 -14.46875 C 10.320312 -14.832031 9.382812 -15.015625 8.625 -15.015625 C 7.257812 -15.015625 6.578125 -14.5625 6.578125 -13.65625 C 6.578125 -13.070312 6.910156 -12.601562 7.578125 -12.25 C 8.253906 -11.894531 9.078125 -11.585938 10.046875 -11.328125 C 11.015625 -11.066406 11.984375 -10.753906 12.953125 -10.390625 C 13.921875 -10.023438 14.738281 -9.4375 15.40625 -8.625 C 16.082031 -7.8125 16.421875 -6.78125 16.421875 -5.53125 C 16.421875 -3.738281 15.71875 -2.34375 14.3125 -1.34375 C 12.914062 -0.34375 11.132812 0.15625 8.96875 0.15625 C 7.425781 0.15625 5.898438 -0.109375 4.390625 -0.640625 C 2.878906 -1.171875 1.566406 -1.898438 0.453125 -2.828125 L 2.296875 -6.46875 C 3.234375 -5.65625 4.335938 -4.984375 5.609375 -4.453125 C 6.890625 -3.929688 8.03125 -3.671875 9.03125 -3.671875 C 9.789062 -3.671875 10.382812 -3.804688 10.8125 -4.078125 C 11.238281 -4.359375 11.453125 -4.765625 11.453125 -5.296875 C 11.453125 -5.816406 11.207031 -6.25 10.71875 -6.59375 C 10.226562 -6.9375 9.617188 -7.191406 8.890625 -7.359375 C 8.160156 -7.523438 7.367188 -7.75 6.515625 -8.03125 C 5.671875 -8.320312 4.882812 -8.632812 4.15625 -8.96875 C 3.425781 -9.3125 2.816406 -9.847656 2.328125 -10.578125 C 1.835938 -11.316406 1.59375 -12.203125 1.59375 -13.234375 C 1.59375 -14.929688 2.269531 -16.289062 3.625 -17.3125 C 4.988281 -18.332031 6.789062 -18.84375 9.03125 -18.84375 Z M 9.03125 -18.84375 "/></g></g></g><g fill="#ffffff" fill-opacity="1"><g transform="translate(116.591492, 81.347781)"><g><path d="M 18.640625 -18.640625 L 18.640625 -7.828125 C 18.640625 -5.359375 17.875 -3.398438 16.34375 -1.953125 C 14.820312 -0.503906 12.753906 0.21875 10.140625 0.21875 C 7.515625 0.21875 5.425781 -0.503906 3.875 -1.953125 C 2.320312 -3.398438 1.546875 -5.359375 1.546875 -7.828125 L 1.546875 -18.640625 L 6.28125 -18.640625 L 6.28125 -7.828125 C 6.28125 -6.585938 6.640625 -5.597656 7.359375 -4.859375 C 8.078125 -4.117188 9.015625 -3.75 10.171875 -3.75 C 11.304688 -3.75 12.210938 -4.113281 12.890625 -4.84375 C 13.578125 -5.570312 13.921875 -6.566406 13.921875 -7.828125 L 13.921875 -18.640625 Z M 18.640625 -18.640625 "/></g></g></g><g fill="#ffffff" fill-opacity="1"><g transform="translate(136.771363, 81.347781)"><g><path d="M 9.03125 -18.84375 C 11.8125 -18.84375 14.257812 -18.15625 16.375 -16.78125 L 14.59375 -13.078125 C 13.613281 -13.640625 12.5625 -14.101562 11.4375 -14.46875 C 10.320312 -14.832031 9.382812 -15.015625 8.625 -15.015625 C 7.257812 -15.015625 6.578125 -14.5625 6.578125 -13.65625 C 6.578125 -13.070312 6.910156 -12.601562 7.578125 -12.25 C 8.253906 -11.894531 9.078125 -11.585938 10.046875 -11.328125 C 11.015625 -11.066406 11.984375 -10.753906 12.953125 -10.390625 C 13.921875 -10.023438 14.738281 -9.4375 15.40625 -8.625 C 16.082031 -7.8125 16.421875 -6.78125 16.421875 -5.53125 C 16.421875 -3.738281 15.71875 -2.34375 14.3125 -1.34375 C 12.914062 -0.34375 11.132812 0.15625 8.96875 0.15625 C 7.425781 0.15625 5.898438 -0.109375 4.390625 -0.640625 C 2.878906 -1.171875 1.566406 -1.898438 0.453125 -2.828125 L 2.296875 -6.46875 C 3.234375 -5.65625 4.335938 -4.984375 5.609375 -4.453125 C 6.890625 -3.929688 8.03125 -3.671875 9.03125 -3.671875 C 9.789062 -3.671875 10.382812 -3.804688 10.8125 -4.078125 C 11.238281 -4.359375 11.453125 -4.765625 11.453125 -5.296875 C 11.453125 -5.816406 11.207031 -6.25 10.71875 -6.59375 C 10.226562 -6.9375 9.617188 -7.191406 8.890625 -7.359375 C 8.160156 -7.523438 7.367188 -7.75 6.515625 -8.03125 C 5.671875 -8.320312 4.882812 -8.632812 4.15625 -8.96875 C 3.425781 -9.3125 2.816406 -9.847656 2.328125 -10.578125 C 1.835938 -11.316406 1.59375 -12.203125 1.59375 -13.234375 C 1.59375 -14.929688 2.269531 -16.289062 3.625 -17.3125 C 4.988281 -18.332031 6.789062 -18.84375 9.03125 -18.84375 Z M 9.03125 -18.84375 "/></g></g></g><g fill="#ffffff" fill-opacity="1"><g transform="translate(153.916269, 81.347781)"><g><path d="M 19.0625 0 L 14.328125 0 L 14.328125 -7.234375 L 6.609375 -7.234375 L 6.609375 0 L 1.859375 0 L 1.859375 -18.640625 L 6.609375 -18.640625 L 6.609375 -10.96875 L 14.328125 -10.96875 L 14.328125 -18.640625 L 19.0625 -18.640625 Z M 19.0625 0 "/></g></g></g><g fill="#ffffff" fill-opacity="1"><g transform="translate(174.841576, 81.347781)"><g><path d="M 6.609375 0 L 1.859375 0 L 1.859375 -18.640625 L 6.609375 -18.640625 Z M 6.609375 0 "/></g></g></g><g fill="#ffffff" fill-opacity="1"><g transform="translate(183.307544, 81.347781)"><g/></g></g><g fill="#ffffff" fill-opacity="1"><g transform="translate(189.483974, 81.347781)"><g><path d="M 1.859375 -18.640625 L 10.671875 -18.640625 C 12.765625 -18.640625 14.425781 -18.21875 15.65625 -17.375 C 16.894531 -16.53125 17.515625 -15.398438 17.515625 -13.984375 C 17.515625 -13.003906 17.226562 -12.144531 16.65625 -11.40625 C 16.09375 -10.664062 15.316406 -10.15625 14.328125 -9.875 C 15.492188 -9.644531 16.421875 -9.101562 17.109375 -8.25 C 17.804688 -7.394531 18.15625 -6.367188 18.15625 -5.171875 C 18.15625 -3.585938 17.507812 -2.328125 16.21875 -1.390625 C 14.9375 -0.460938 13.195312 0 11 0 L 1.859375 0 Z M 6.578125 -15.015625 L 6.578125 -11.1875 L 10.40625 -11.1875 C 11.101562 -11.1875 11.65625 -11.359375 12.0625 -11.703125 C 12.46875 -12.046875 12.671875 -12.519531 12.671875 -13.125 C 12.671875 -13.707031 12.46875 -14.164062 12.0625 -14.5 C 11.65625 -14.84375 11.101562 -15.015625 10.40625 -15.015625 Z M 6.578125 -7.78125 L 6.578125 -3.640625 L 10.40625 -3.640625 C 11.289062 -3.640625 11.988281 -3.828125 12.5 -4.203125 C 13.007812 -4.578125 13.265625 -5.09375 13.265625 -5.75 C 13.265625 -6.375 13.007812 -6.867188 12.5 -7.234375 C 11.988281 -7.597656 11.289062 -7.78125 10.40625 -7.78125 Z M 6.578125 -7.78125 "/></g></g></g><g fill="#ffffff" fill-opacity="1"><g transform="translate(208.519076, 81.347781)"><g><path d="M 14.25 -3.4375 L 6.09375 -3.4375 L 4.734375 0 L -0.140625 0 L 7.90625 -18.640625 L 12.78125 -18.640625 L 20.640625 0 L 15.578125 0 Z M 12.859375 -7.03125 L 10.203125 -13.921875 L 7.484375 -7.03125 Z M 12.859375 -7.03125 "/></g></g></g><g fill="#ffffff" fill-opacity="1"><g transform="translate(229.018426, 81.347781)"><g><path d="M 13.09375 0 L 10.328125 -5.25 L 6.609375 -5.25 L 6.609375 0 L 1.859375 0 L 1.859375 -18.640625 L 10.203125 -18.640625 C 12.660156 -18.640625 14.5625 -18.070312 15.90625 -16.9375 C 17.257812 -15.8125 17.9375 -14.210938 17.9375 -12.140625 C 17.9375 -9.265625 16.8125 -7.269531 14.5625 -6.15625 L 18.484375 0 Z M 6.609375 -8.96875 L 10.203125 -8.96875 C 11.222656 -8.96875 12.019531 -9.222656 12.59375 -9.734375 C 13.164062 -10.253906 13.453125 -11.003906 13.453125 -11.984375 C 13.453125 -12.941406 13.164062 -13.664062 12.59375 -14.15625 C 12.019531 -14.65625 11.222656 -14.90625 10.203125 -14.90625 L 6.609375 -14.90625 Z M 6.609375 -8.96875 "/></g></g></g><g fill="#ffffff" fill-opacity="1"><g transform="translate(48.460128, 100.896065)"><g><path d="M 4.953125 -10.84375 C 6.347656 -10.84375 7.601562 -10.476562 8.71875 -9.75 L 7.96875 -8.140625 C 6.875 -8.804688 5.820312 -9.140625 4.8125 -9.140625 C 4.269531 -9.140625 3.84375 -9.039062 3.53125 -8.84375 C 3.21875 -8.65625 3.0625 -8.378906 3.0625 -8.015625 C 3.0625 -7.660156 3.203125 -7.351562 3.484375 -7.09375 C 3.773438 -6.84375 4.132812 -6.660156 4.5625 -6.546875 C 5 -6.429688 5.46875 -6.28125 5.96875 -6.09375 C 6.46875 -5.914062 6.929688 -5.726562 7.359375 -5.53125 C 7.796875 -5.332031 8.15625 -5.019531 8.4375 -4.59375 C 8.71875 -4.164062 8.859375 -3.648438 8.859375 -3.046875 C 8.859375 -2.097656 8.484375 -1.34375 7.734375 -0.78125 C 6.984375 -0.21875 6.003906 0.0625 4.796875 0.0625 C 3.984375 0.0625 3.191406 -0.0859375 2.421875 -0.390625 C 1.648438 -0.703125 0.976562 -1.117188 0.40625 -1.640625 L 1.1875 -3.21875 C 1.726562 -2.71875 2.320312 -2.328125 2.96875 -2.046875 C 3.625 -1.773438 4.242188 -1.640625 4.828125 -1.640625 C 5.460938 -1.640625 5.957031 -1.753906 6.3125 -1.984375 C 6.664062 -2.222656 6.84375 -2.546875 6.84375 -2.953125 C 6.84375 -3.328125 6.695312 -3.640625 6.40625 -3.890625 C 6.125 -4.140625 5.765625 -4.320312 5.328125 -4.4375 C 4.898438 -4.5625 4.4375 -4.707031 3.9375 -4.875 C 3.4375 -5.039062 2.96875 -5.21875 2.53125 -5.40625 C 2.101562 -5.59375 1.742188 -5.894531 1.453125 -6.3125 C 1.171875 -6.738281 1.03125 -7.25 1.03125 -7.84375 C 1.03125 -8.757812 1.390625 -9.488281 2.109375 -10.03125 C 2.828125 -10.570312 3.773438 -10.84375 4.953125 -10.84375 Z M 4.953125 -10.84375 "/></g></g></g><g fill="#ffffff" fill-opacity="1"><g transform="translate(58.031605, 100.896065)"><g><path d="M 10.578125 -10.78125 L 10.578125 -4.46875 C 10.578125 -3.0625 10.160156 -1.953125 9.328125 -1.140625 C 8.492188 -0.328125 7.347656 0.078125 5.890625 0.078125 C 4.429688 0.078125 3.285156 -0.328125 2.453125 -1.140625 C 1.617188 -1.953125 1.203125 -3.0625 1.203125 -4.46875 L 1.203125 -10.78125 L 3.015625 -10.78125 L 3.015625 -4.46875 C 3.015625 -3.5625 3.273438 -2.847656 3.796875 -2.328125 C 4.316406 -1.804688 5.019531 -1.546875 5.90625 -1.546875 C 6.789062 -1.546875 7.484375 -1.800781 7.984375 -2.3125 C 8.492188 -2.832031 8.75 -3.550781 8.75 -4.46875 L 8.75 -10.78125 Z M 10.578125 -10.78125 "/></g></g></g><g fill="#ffffff" fill-opacity="1"><g transform="translate(69.788212, 100.896065)"><g><path d="M 4.953125 -10.84375 C 6.347656 -10.84375 7.601562 -10.476562 8.71875 -9.75 L 7.96875 -8.140625 C 6.875 -8.804688 5.820312 -9.140625 4.8125 -9.140625 C 4.269531 -9.140625 3.84375 -9.039062 3.53125 -8.84375 C 3.21875 -8.65625 3.0625 -8.378906 3.0625 -8.015625 C 3.0625 -7.660156 3.203125 -7.351562 3.484375 -7.09375 C 3.773438 -6.84375 4.132812 -6.660156 4.5625 -6.546875 C 5 -6.429688 5.46875 -6.28125 5.96875 -6.09375 C 6.46875 -5.914062 6.929688 -5.726562 7.359375 -5.53125 C 7.796875 -5.332031 8.15625 -5.019531 8.4375 -4.59375 C 8.71875 -4.164062 8.859375 -3.648438 8.859375 -3.046875 C 8.859375 -2.097656 8.484375 -1.34375 7.734375 -0.78125 C 6.984375 -0.21875 6.003906 0.0625 4.796875 0.0625 C 3.984375 0.0625 3.191406 -0.0859375 2.421875 -0.390625 C 1.648438 -0.703125 0.976562 -1.117188 0.40625 -1.640625 L 1.1875 -3.21875 C 1.726562 -2.71875 2.320312 -2.328125 2.96875 -2.046875 C 3.625 -1.773438 4.242188 -1.640625 4.828125 -1.640625 C 5.460938 -1.640625 5.957031 -1.753906 6.3125 -1.984375 C 6.664062 -2.222656 6.84375 -2.546875 6.84375 -2.953125 C 6.84375 -3.328125 6.695312 -3.640625 6.40625 -3.890625 C 6.125 -4.140625 5.765625 -4.320312 5.328125 -4.4375 C 4.898438 -4.5625 4.4375 -4.707031 3.9375 -4.875 C 3.4375 -5.039062 2.96875 -5.21875 2.53125 -5.40625 C 2.101562 -5.59375 1.742188 -5.894531 1.453125 -6.3125 C 1.171875 -6.738281 1.03125 -7.25 1.03125 -7.84375 C 1.03125 -8.757812 1.390625 -9.488281 2.109375 -10.03125 C 2.828125 -10.570312 3.773438 -10.84375 4.953125 -10.84375 Z M 4.953125 -10.84375 "/></g></g></g><g fill="#ffffff" fill-opacity="1"><g transform="translate(79.359689, 100.896065)"><g><path d="M 10.765625 0 L 8.9375 0 L 8.9375 -4.46875 L 3.234375 -4.46875 L 3.234375 0 L 1.421875 0 L 1.421875 -10.78125 L 3.234375 -10.78125 L 3.234375 -6.09375 L 8.9375 -6.09375 L 8.9375 -10.78125 L 10.765625 -10.78125 Z M 10.765625 0 "/></g></g></g><g fill="#ffffff" fill-opacity="1"><g transform="translate(91.531774, 100.896065)"><g><path d="M 3.234375 0 L 1.421875 0 L 1.421875 -10.78125 L 3.234375 -10.78125 Z M 3.234375 0 "/></g></g></g><g fill="#ffffff" fill-opacity="1"><g transform="translate(96.17902, 100.896065)"><g/></g></g><g fill="#ffffff" fill-opacity="1"><g transform="translate(100.149186, 100.896065)"><g><path d="M 8.25 0 L 6.28125 -3.265625 C 6.175781 -3.253906 6.007812 -3.25 5.78125 -3.25 L 3.234375 -3.25 L 3.234375 0 L 1.421875 0 L 1.421875 -10.78125 L 5.78125 -10.78125 C 7.15625 -10.78125 8.222656 -10.457031 8.984375 -9.8125 C 9.742188 -9.164062 10.125 -8.257812 10.125 -7.09375 C 10.125 -6.226562 9.929688 -5.5 9.546875 -4.90625 C 9.160156 -4.3125 8.609375 -3.875 7.890625 -3.59375 L 10.3125 0 Z M 3.234375 -4.875 L 5.78125 -4.875 C 7.53125 -4.875 8.40625 -5.597656 8.40625 -7.046875 C 8.40625 -8.441406 7.53125 -9.140625 5.78125 -9.140625 L 3.234375 -9.140625 Z M 3.234375 -4.875 "/></g></g></g><g fill="#ffffff" fill-opacity="1"><g transform="translate(111.274877, 100.896065)"><g><path d="M 9.109375 -9.140625 L 3.234375 -9.140625 L 3.234375 -6.234375 L 8.5 -6.234375 L 8.5 -4.609375 L 3.234375 -4.609375 L 3.234375 -1.625 L 9.296875 -1.625 L 9.296875 0 L 1.421875 0 L 1.421875 -10.78125 L 9.109375 -10.78125 Z M 9.109375 -9.140625 "/></g></g></g><g fill="#ffffff" fill-opacity="1"><g transform="translate(121.369558, 100.896065)"><g><path d="M 4.953125 -10.84375 C 6.347656 -10.84375 7.601562 -10.476562 8.71875 -9.75 L 7.96875 -8.140625 C 6.875 -8.804688 5.820312 -9.140625 4.8125 -9.140625 C 4.269531 -9.140625 3.84375 -9.039062 3.53125 -8.84375 C 3.21875 -8.65625 3.0625 -8.378906 3.0625 -8.015625 C 3.0625 -7.660156 3.203125 -7.351562 3.484375 -7.09375 C 3.773438 -6.84375 4.132812 -6.660156 4.5625 -6.546875 C 5 -6.429688 5.46875 -6.28125 5.96875 -6.09375 C 6.46875 -5.914062 6.929688 -5.726562 7.359375 -5.53125 C 7.796875 -5.332031 8.15625 -5.019531 8.4375 -4.59375 C 8.71875 -4.164062 8.859375 -3.648438 8.859375 -3.046875 C 8.859375 -2.097656 8.484375 -1.34375 7.734375 -0.78125 C 6.984375 -0.21875 6.003906 0.0625 4.796875 0.0625 C 3.984375 0.0625 3.191406 -0.0859375 2.421875 -0.390625 C 1.648438 -0.703125 0.976562 -1.117188 0.40625 -1.640625 L 1.1875 -3.21875 C 1.726562 -2.71875 2.320312 -2.328125 2.96875 -2.046875 C 3.625 -1.773438 4.242188 -1.640625 4.828125 -1.640625 C 5.460938 -1.640625 5.957031 -1.753906 6.3125 -1.984375 C 6.664062 -2.222656 6.84375 -2.546875 6.84375 -2.953125 C 6.84375 -3.328125 6.695312 -3.640625 6.40625 -3.890625 C 6.125 -4.140625 5.765625 -4.320312 5.328125 -4.4375 C 4.898438 -4.5625 4.4375 -4.707031 3.9375 -4.875 C 3.4375 -5.039062 2.96875 -5.21875 2.53125 -5.40625 C 2.101562 -5.59375 1.742188 -5.894531 1.453125 -6.3125 C 1.171875 -6.738281 1.03125 -7.25 1.03125 -7.84375 C 1.03125 -8.757812 1.390625 -9.488281 2.109375 -10.03125 C 2.828125 -10.570312 3.773438 -10.84375 4.953125 -10.84375 Z M 4.953125 -10.84375 "/></g></g></g><g fill="#ffffff" fill-opacity="1"><g transform="translate(130.941035, 100.896065)"><g><path d="M 8.765625 -9.140625 L 5.359375 -9.140625 L 5.359375 0 L 3.546875 0 L 3.546875 -9.140625 L 0.140625 -9.140625 L 0.140625 -10.78125 L 8.765625 -10.78125 Z M 8.765625 -9.140625 "/></g></g></g><g fill="#ffffff" fill-opacity="1"><g transform="translate(139.850815, 100.896065)"><g><path d="M 8.375 -2.4375 L 2.9375 -2.4375 L 1.90625 0 L 0.015625 0 L 4.765625 -10.78125 L 6.640625 -10.78125 L 11.34375 0 L 9.40625 0 Z M 7.6875 -4.046875 L 5.640625 -8.828125 L 3.609375 -4.046875 Z M 7.6875 -4.046875 "/></g></g></g><g fill="#ffffff" fill-opacity="1"><g transform="translate(151.207327, 100.896065)"><g><path d="M 10.578125 -10.78125 L 10.578125 -4.46875 C 10.578125 -3.0625 10.160156 -1.953125 9.328125 -1.140625 C 8.492188 -0.328125 7.347656 0.078125 5.890625 0.078125 C 4.429688 0.078125 3.285156 -0.328125 2.453125 -1.140625 C 1.617188 -1.953125 1.203125 -3.0625 1.203125 -4.46875 L 1.203125 -10.78125 L 3.015625 -10.78125 L 3.015625 -4.46875 C 3.015625 -3.5625 3.273438 -2.847656 3.796875 -2.328125 C 4.316406 -1.804688 5.019531 -1.546875 5.90625 -1.546875 C 6.789062 -1.546875 7.484375 -1.800781 7.984375 -2.3125 C 8.492188 -2.832031 8.75 -3.550781 8.75 -4.46875 L 8.75 -10.78125 Z M 10.578125 -10.78125 "/></g></g></g><g fill="#ffffff" fill-opacity="1"><g transform="translate(162.963934, 100.896065)"><g><path d="M 8.25 0 L 6.28125 -3.265625 C 6.175781 -3.253906 6.007812 -3.25 5.78125 -3.25 L 3.234375 -3.25 L 3.234375 0 L 1.421875 0 L 1.421875 -10.78125 L 5.78125 -10.78125 C 7.15625 -10.78125 8.222656 -10.457031 8.984375 -9.8125 C 9.742188 -9.164062 10.125 -8.257812 10.125 -7.09375 C 10.125 -6.226562 9.929688 -5.5 9.546875 -4.90625 C 9.160156 -4.3125 8.609375 -3.875 7.890625 -3.59375 L 10.3125 0 Z M 3.234375 -4.875 L 5.78125 -4.875 C 7.53125 -4.875 8.40625 -5.597656 8.40625 -7.046875 C 8.40625 -8.441406 7.53125 -9.140625 5.78125 -9.140625 L 3.234375 -9.140625 Z M 3.234375 -4.875 "/></g></g></g><g fill="#ffffff" fill-opacity="1"><g transform="translate(174.089626, 100.896065)"><g><path d="M 8.375 -2.4375 L 2.9375 -2.4375 L 1.90625 0 L 0.015625 0 L 4.765625 -10.78125 L 6.640625 -10.78125 L 11.34375 0 L 9.40625 0 Z M 7.6875 -4.046875 L 5.640625 -8.828125 L 3.609375 -4.046875 Z M 7.6875 -4.046875 "/></g></g></g><g fill="#ffffff" fill-opacity="1"><g transform="translate(185.446138, 100.896065)"><g><path d="M 10.765625 0 L 8.96875 0 L 3.234375 -7.71875 L 3.234375 0 L 1.421875 0 L 1.421875 -10.78125 L 3.203125 -10.78125 L 8.96875 -3.03125 L 8.96875 -10.78125 L 10.765625 -10.78125 Z M 10.765625 0 "/></g></g></g><g fill="#ffffff" fill-opacity="1"><g transform="translate(197.633606, 100.896065)"><g><path d="M 8.765625 -9.140625 L 5.359375 -9.140625 L 5.359375 0 L 3.546875 0 L 3.546875 -9.140625 L 0.140625 -9.140625 L 0.140625 -10.78125 L 8.765625 -10.78125 Z M 8.765625 -9.140625 "/></g></g></g></svg>