<?xml version="1.0" standalone="no"?>
<svg xmlns:xlink="http://www.w3.org/1999/xlink" id="wave" style="transform:rotate(180deg); transition: 0.3s" viewBox="0 0 1440 100" version="1.1" xmlns="http://www.w3.org/2000/svg"><defs><linearGradient id="sw-gradient-0" x1="0" x2="0" y1="1" y2="0"><stop stop-color="rgba(0, 0, 0, 1)" offset="0%"/><stop stop-color="rgba(0, 0, 0, 1)" offset="100%"/></linearGradient></defs><path style="transform:translate(0, 0px); opacity:1" fill="url(#sw-gradient-0)" d="M0,20L40,26.7C80,33,160,47,240,55C320,63,400,67,480,56.7C560,47,640,23,720,13.3C800,3,880,7,960,11.7C1040,17,1120,23,1200,25C1280,27,1360,23,1440,21.7C1520,20,1600,20,1680,26.7C1760,33,1840,47,1920,56.7C2000,67,2080,73,2160,75C2240,77,2320,73,2400,61.7C2480,50,2560,30,2640,31.7C2720,33,2800,57,2880,60C2960,63,3040,47,3120,46.7C3200,47,3280,63,3360,70C3440,77,3520,73,3600,61.7C3680,50,3760,30,3840,21.7C3920,13,4000,17,4080,25C4160,33,4240,47,4320,56.7C4400,67,4480,73,4560,76.7C4640,80,4720,80,4800,71.7C4880,63,4960,47,5040,38.3C5120,30,5200,30,5280,40C5360,50,5440,70,5520,70C5600,70,5680,50,5720,40L5760,30L5760,100L5720,100C5680,100,5600,100,5520,100C5440,100,5360,100,5280,100C5200,100,5120,100,5040,100C4960,100,4880,100,4800,100C4720,100,4640,100,4560,100C4480,100,4400,100,4320,100C4240,100,4160,100,4080,100C4000,100,3920,100,3840,100C3760,100,3680,100,3600,100C3520,100,3440,100,3360,100C3280,100,3200,100,3120,100C3040,100,2960,100,2880,100C2800,100,2720,100,2640,100C2560,100,2480,100,2400,100C2320,100,2240,100,2160,100C2080,100,2000,100,1920,100C1840,100,1760,100,1680,100C1600,100,1520,100,1440,100C1360,100,1280,100,1200,100C1120,100,1040,100,960,100C880,100,800,100,720,100C640,100,560,100,480,100C400,100,320,100,240,100C160,100,80,100,40,100L0,100Z"/></svg>